<svg width="20" height="19" viewBox="0 0 20 19" fill="none" xmlns="http://www.w3.org/2000/svg">
<path d="M0.604059 3.07839H3.92881C3.73502 2.93103 3.53921 2.78165 3.34542 2.63428C3.44231 2.92901 3.53921 3.22374 3.63611 3.52048C3.87027 4.22903 4.10242 4.93759 4.33659 5.64614C4.61718 6.49802 4.89979 7.35192 5.18039 8.20582C5.42465 8.94667 5.66891 9.68753 5.91115 10.4284C6.03025 10.7877 6.1433 11.149 6.26644 11.5064C6.26846 11.5124 6.27047 11.5164 6.27249 11.5225C6.37141 11.8233 6.69641 12.0494 7.01738 11.9464C7.31615 11.8495 7.54627 11.5245 7.4413 11.2015C7.34441 10.9068 7.24751 10.6121 7.15061 10.3153C6.91645 9.60678 6.6843 8.89822 6.45014 8.18967C6.16954 7.33577 5.88894 6.48187 5.60633 5.62797C5.36207 4.88712 5.11781 4.14627 4.87557 3.40542C4.75647 3.04609 4.64544 2.68475 4.52028 2.32744C4.51827 2.32139 4.51625 2.31735 4.51423 2.3113C4.42944 2.05694 4.20537 1.86719 3.93083 1.86719H0.606078C0.289146 1.86719 -0.0136548 2.14576 0.000475933 2.47279C0.012588 2.80183 0.264922 3.07839 0.604059 3.07839Z" fill="#E5E5E5"/>
<path d="M6.335 11.0551C6.00797 11.6385 5.67893 12.2199 5.3519 12.8033C5.30547 12.8881 5.25702 12.9708 5.21059 13.0556C4.98652 13.4533 5.26914 13.966 5.73343 13.966H14.979C15.4049 13.966 15.8329 13.9741 16.2608 13.966H16.279C16.5959 13.966 16.8987 13.6875 16.8846 13.3604C16.8704 13.0314 16.6181 12.7548 16.279 12.7548H7.03346C6.60752 12.7548 6.17754 12.7427 5.7516 12.7548H5.73343C5.90704 13.0576 6.08266 13.3624 6.25627 13.6652C6.58329 13.0819 6.91234 12.5005 7.23936 11.9171C7.28579 11.8323 7.33424 11.7495 7.38067 11.6647C7.53611 11.3882 7.45536 10.9905 7.16265 10.8371C6.876 10.6877 6.50053 10.7604 6.335 11.0551Z" fill="#E5E5E5"/>
<path d="M14.4001 17.8549C15.1593 17.8549 15.7748 17.2394 15.7748 16.4802C15.7748 15.721 15.1593 15.1055 14.4001 15.1055C13.6409 15.1055 13.0254 15.721 13.0254 16.4802C13.0254 17.2394 13.6409 17.8549 14.4001 17.8549Z" fill="#E5E5E5"/>
<path d="M12.6216 16.4819C12.6297 17.2389 13.1041 17.893 13.8086 18.1574C14.4747 18.4077 15.2943 18.1897 15.7485 17.6406C16.231 17.0552 16.3279 16.2215 15.9262 15.5634C15.5305 14.9134 14.7715 14.5965 14.0306 14.7418C13.2131 14.9013 12.6297 15.6623 12.6216 16.4819C12.6196 16.6939 12.8093 16.8957 13.0253 16.8857C13.2454 16.8756 13.427 16.708 13.4291 16.4819C13.4291 16.4496 13.4311 16.4153 13.4331 16.383C13.4331 16.3689 13.4351 16.3547 13.4371 16.3406C13.4432 16.2599 13.4351 16.3669 13.4331 16.3648C13.419 16.3568 13.4755 16.1832 13.4816 16.167C13.4876 16.1509 13.4997 16.0822 13.5139 16.0782C13.5179 16.0762 13.4775 16.1529 13.4997 16.1125C13.5078 16.0964 13.5159 16.0802 13.5219 16.0641C13.5522 16.0035 13.5885 15.949 13.6249 15.8925C13.6632 15.8339 13.5704 15.955 13.635 15.8804C13.6552 15.8581 13.6753 15.8339 13.6976 15.8117C13.7198 15.7895 13.742 15.7673 13.7642 15.7471C13.7743 15.739 13.7844 15.729 13.7944 15.7209C13.8086 15.7088 13.8671 15.6805 13.8146 15.7027C13.7702 15.7209 13.8025 15.7128 13.8167 15.7027C13.8308 15.6926 13.8449 15.6825 13.8611 15.6724C13.8833 15.6583 13.9055 15.6442 13.9297 15.6321C13.96 15.6139 13.9923 15.5998 14.0246 15.5836C14.0347 15.5776 14.0771 15.5574 14.0246 15.5816C13.964 15.6099 14.0448 15.5755 14.0508 15.5735C14.1053 15.5533 14.1639 15.5372 14.2204 15.5251C14.2386 15.521 14.2567 15.519 14.2749 15.515C14.3193 15.5049 14.2365 15.519 14.2365 15.519C14.2729 15.519 14.3112 15.5109 14.3476 15.5109C14.4142 15.5089 14.4788 15.5109 14.5454 15.517C14.6201 15.523 14.4687 15.5029 14.5615 15.521C14.5979 15.5271 14.6322 15.5372 14.6685 15.5453C14.6988 15.5533 14.7291 15.5634 14.7594 15.5735C14.7674 15.5755 14.8078 15.5897 14.8098 15.5917C14.8119 15.5977 14.7351 15.5533 14.7755 15.5776C14.832 15.6119 14.8946 15.6381 14.9511 15.6745C14.9653 15.6845 14.9794 15.6946 14.9956 15.7047C15.0097 15.7148 15.04 15.7229 14.9976 15.7047C14.9572 15.6886 14.9834 15.6926 14.9976 15.7067C15.0117 15.7189 15.0238 15.729 15.0379 15.7411C15.0884 15.7855 15.1308 15.8339 15.1752 15.8824C15.2358 15.949 15.147 15.8359 15.1853 15.8945C15.2015 15.9207 15.2196 15.945 15.2358 15.9712C15.2519 15.9974 15.2681 16.0257 15.2822 16.0519L15.3004 16.0883C15.3387 16.161 15.3085 16.0822 15.2984 16.0782C15.3226 16.0863 15.3488 16.2316 15.3569 16.2578C15.363 16.2841 15.369 16.3124 15.3751 16.3386C15.3912 16.4153 15.373 16.3144 15.373 16.3124C15.3831 16.3224 15.3791 16.3689 15.3791 16.381C15.3831 16.4415 15.3831 16.5041 15.3791 16.5647C15.3771 16.5829 15.3751 16.601 15.3751 16.6212C15.373 16.6616 15.3508 16.6555 15.3791 16.597C15.365 16.6273 15.365 16.6717 15.3569 16.704C15.3428 16.7605 15.3206 16.815 15.3044 16.8715C15.2883 16.922 15.3407 16.8029 15.3145 16.8493C15.3085 16.8594 15.3024 16.8735 15.2984 16.8857C15.2822 16.918 15.2661 16.9482 15.2479 16.9785C15.2317 17.0048 15.2156 17.031 15.1974 17.0572C15.1429 17.14 15.2358 17.0169 15.1893 17.0714C15.1449 17.1218 15.1025 17.1703 15.0521 17.2147C15.044 17.2228 14.9956 17.2753 14.9814 17.2753C14.9814 17.2753 15.0642 17.2187 14.9996 17.2591C14.9875 17.2672 14.9774 17.2732 14.9673 17.2813C14.9108 17.3177 14.8522 17.3479 14.7937 17.3782C14.7311 17.4105 14.8664 17.354 14.7796 17.3843C14.7493 17.3944 14.721 17.4045 14.6907 17.4145C14.6605 17.4226 14.6302 17.4307 14.5979 17.4388C14.5837 17.4408 14.5716 17.4448 14.5575 17.4468C14.4687 17.467 14.6221 17.4428 14.5696 17.4468C14.503 17.4529 14.4384 17.4569 14.3718 17.4549C14.3395 17.4549 14.3072 17.4509 14.2729 17.4489C14.2608 17.4489 14.2123 17.4428 14.2709 17.4489C14.3375 17.4549 14.2567 17.4448 14.2426 17.4428C14.1719 17.4287 14.1033 17.4065 14.0347 17.3822C14.0226 17.3782 13.9822 17.358 14.0326 17.3822C14.0912 17.4105 14.0205 17.3762 14.0084 17.3701C13.9761 17.354 13.9458 17.3378 13.9156 17.3197C13.8853 17.3015 13.857 17.2813 13.8267 17.2611C13.7783 17.2308 13.8328 17.2773 13.8449 17.2773C13.8368 17.2773 13.8106 17.249 13.8045 17.243C13.7521 17.1965 13.7016 17.1481 13.6552 17.0936C13.6552 17.0936 13.6208 17.0593 13.6208 17.0532C13.6208 17.0613 13.6693 17.1218 13.637 17.0714C13.6168 17.0411 13.5966 17.0128 13.5784 16.9826C13.5583 16.9482 13.5401 16.9119 13.5219 16.8776C13.4795 16.7948 13.5421 16.9422 13.5098 16.8513C13.4856 16.7827 13.4654 16.7141 13.4513 16.6414C13.4493 16.6293 13.4493 16.6111 13.4432 16.601C13.4735 16.6676 13.4493 16.6575 13.4452 16.6111C13.4412 16.5687 13.4392 16.5263 13.4392 16.4839C13.4371 16.272 13.2555 16.0701 13.0354 16.0802C12.8093 16.0863 12.6196 16.2558 12.6216 16.4819Z" fill="#E5E5E5"/>
<path d="M7.44063 17.8549C8.19987 17.8549 8.81535 17.2394 8.81535 16.4802C8.81535 15.721 8.19987 15.1055 7.44063 15.1055C6.6814 15.1055 6.06592 15.721 6.06592 16.4802C6.06592 17.2394 6.6814 17.8549 7.44063 17.8549Z" fill="#E5E5E5"/>
<path d="M5.66214 16.479C5.67022 17.236 6.1446 17.8901 6.84912 18.1545C7.51528 18.4048 8.33486 18.1868 8.78907 17.6377C9.27153 17.0523 9.36842 16.2186 8.96671 15.5605C8.57105 14.9105 7.81203 14.5936 7.07118 14.7389C6.25159 14.8984 5.67022 15.6594 5.66214 16.479C5.66012 16.691 5.84988 16.8928 6.06588 16.8827C6.28591 16.8727 6.46759 16.7051 6.46961 16.479C6.46961 16.4467 6.47163 16.4124 6.47365 16.3801C6.47365 16.366 6.47567 16.3518 6.47769 16.3377C6.48374 16.257 6.47567 16.3639 6.47365 16.3619C6.45952 16.3539 6.51604 16.1802 6.5221 16.1641C6.52815 16.1479 6.54026 16.0793 6.55439 16.0753C6.55843 16.0733 6.51806 16.15 6.54026 16.1096C6.54834 16.0934 6.55641 16.0773 6.56247 16.0611C6.59275 16.0006 6.62909 15.9461 6.66542 15.8896C6.70378 15.831 6.61092 15.9521 6.67552 15.8774C6.6957 15.8552 6.71589 15.831 6.73809 15.8088C6.7603 15.7866 6.7825 15.7644 6.80471 15.7442C6.8148 15.7361 6.8249 15.726 6.83499 15.718C6.84912 15.7059 6.90766 15.6776 6.85518 15.6998C6.81077 15.718 6.84307 15.7099 6.8572 15.6998C6.87133 15.6897 6.88546 15.6796 6.90161 15.6695C6.92381 15.6554 6.94602 15.6413 6.97024 15.6292C7.00052 15.611 7.03282 15.5969 7.06512 15.5807C7.07521 15.5746 7.1176 15.5545 7.06512 15.5787C7.00456 15.6069 7.08531 15.5726 7.09136 15.5706C7.14587 15.5504 7.20441 15.5343 7.26093 15.5222C7.2791 15.5181 7.29727 15.5161 7.31543 15.5121C7.35985 15.502 7.27708 15.5161 7.27708 15.5161C7.31342 15.5161 7.35177 15.508 7.38811 15.508C7.45472 15.506 7.51932 15.508 7.58594 15.5141C7.66063 15.5201 7.50923 15.5 7.60209 15.5181C7.63842 15.5242 7.67274 15.5343 7.70908 15.5423C7.73936 15.5504 7.76964 15.5605 7.79992 15.5706C7.80799 15.5726 7.84836 15.5868 7.85038 15.5888C7.8524 15.5948 7.77569 15.5504 7.81607 15.5746C7.87259 15.609 7.93517 15.6352 7.99169 15.6715C8.00582 15.6816 8.01995 15.6917 8.0361 15.7018C8.05023 15.7119 8.08051 15.72 8.03812 15.7018C7.99775 15.6857 8.02399 15.6897 8.03812 15.7038C8.05225 15.716 8.06436 15.726 8.07849 15.7382C8.12896 15.7826 8.17135 15.831 8.21576 15.8795C8.27632 15.9461 8.1875 15.833 8.22586 15.8916C8.24201 15.9178 8.26017 15.942 8.27632 15.9683C8.29247 15.9945 8.30862 16.0228 8.32275 16.049L8.34092 16.0854C8.37928 16.158 8.34899 16.0793 8.3389 16.0753C8.36313 16.0834 8.38937 16.2287 8.39744 16.2549C8.4035 16.2812 8.40956 16.3094 8.41561 16.3357C8.43176 16.4124 8.41359 16.3115 8.41359 16.3094C8.42369 16.3195 8.41965 16.366 8.41965 16.3781C8.42369 16.4386 8.42369 16.5012 8.41965 16.5618C8.41763 16.5799 8.41561 16.5981 8.41561 16.6183C8.41359 16.6587 8.39139 16.6526 8.41965 16.5941C8.40552 16.6244 8.40552 16.6688 8.39744 16.7011C8.38331 16.7576 8.36111 16.8121 8.34496 16.8686C8.32881 16.9191 8.38129 16.8 8.35505 16.8464C8.349 16.8565 8.34294 16.8706 8.3389 16.8827C8.32275 16.915 8.3066 16.9453 8.28843 16.9756C8.27229 17.0018 8.25614 17.0281 8.23797 17.0543C8.18346 17.1371 8.27632 17.014 8.22989 17.0685C8.18548 17.1189 8.14309 17.1674 8.09262 17.2118C8.08455 17.2199 8.0361 17.2724 8.02197 17.2724C8.02197 17.2724 8.10474 17.2158 8.04014 17.2562C8.02803 17.2643 8.01793 17.2703 8.00784 17.2784C7.95132 17.3147 7.89277 17.345 7.83423 17.3753C7.77165 17.4076 7.90691 17.3511 7.8201 17.3814C7.78982 17.3915 7.76156 17.4015 7.73128 17.4116C7.701 17.4197 7.67072 17.4278 7.63842 17.4359C7.62429 17.4379 7.61218 17.4419 7.59805 17.4439C7.50923 17.4641 7.66265 17.4399 7.61016 17.4439C7.54354 17.45 7.47895 17.454 7.41233 17.452C7.38003 17.452 7.34773 17.448 7.31342 17.446C7.3013 17.446 7.25286 17.4399 7.3114 17.446C7.37801 17.452 7.29727 17.4419 7.28314 17.4399C7.21248 17.4258 7.14385 17.4036 7.07521 17.3793C7.0631 17.3753 7.02273 17.3551 7.07319 17.3793C7.13174 17.4076 7.06108 17.3733 7.04897 17.3672C7.01667 17.3511 6.98639 17.3349 6.95611 17.3168C6.92583 17.2986 6.89757 17.2784 6.86729 17.2582C6.81884 17.2279 6.87334 17.2744 6.88546 17.2744C6.87738 17.2744 6.85114 17.2461 6.84508 17.2401C6.7926 17.1936 6.74213 17.1452 6.6957 17.0907C6.6957 17.0907 6.66138 17.0564 6.66138 17.0503C6.66138 17.0584 6.70983 17.1189 6.67753 17.0685C6.65735 17.0382 6.63716 17.0099 6.61899 16.9796C6.59881 16.9453 6.58064 16.909 6.56247 16.8747C6.52008 16.7919 6.58266 16.9393 6.55036 16.8484C6.52613 16.7798 6.50595 16.7112 6.49182 16.6385C6.4898 16.6264 6.4898 16.6082 6.48374 16.5981C6.51402 16.6647 6.4898 16.6546 6.48576 16.6082C6.48172 16.5658 6.4797 16.5234 6.4797 16.481C6.47769 16.2691 6.29601 16.0672 6.07597 16.0773C5.84786 16.0834 5.6581 16.2529 5.66214 16.479ZM18.725 5.03516L16.2743 11.3536H6.8572L4.77393 5.03516H18.725Z" fill="#E5E5E5"/>
<path d="M18.334 4.92556C18.0575 5.63815 17.7829 6.35074 17.5064 7.06333C17.0663 8.19985 16.6262 9.33434 16.1882 10.4709C16.0872 10.7313 15.9863 10.9937 15.8854 11.2541C16.0146 11.1552 16.1458 11.0563 16.275 10.9574H8.01658C7.63706 10.9574 7.25352 10.9412 6.87199 10.9574H6.85584C6.98503 11.0563 7.11625 11.1552 7.24544 11.2541C7.00926 10.5375 6.77509 9.82286 6.53891 9.10623C6.16545 7.97375 5.792 6.84128 5.42056 5.70678C5.33376 5.44638 5.24897 5.18597 5.16217 4.92354C5.03298 5.09311 4.90176 5.2647 4.77257 5.43426H18.1584C18.3401 5.43426 18.5217 5.4383 18.7014 5.43426H18.7256C18.9376 5.43426 19.1395 5.24855 19.1294 5.03053C19.1193 4.81251 18.9517 4.62679 18.7256 4.62679H5.33981C5.15813 4.62679 4.97645 4.62276 4.79679 4.62679H4.77257C4.52023 4.62679 4.3002 4.8872 4.38296 5.13752C4.61915 5.85415 4.85331 6.56876 5.0895 7.28539C5.46295 8.41786 5.83641 9.55034 6.20784 10.6848C6.29465 10.9452 6.37943 11.2056 6.46623 11.4681C6.52276 11.6376 6.67214 11.7648 6.85584 11.7648H15.1142C15.4937 11.7648 15.8773 11.779 16.2588 11.7648H16.275C16.4667 11.7648 16.6 11.6356 16.6646 11.4681C16.9411 10.7555 17.2157 10.0429 17.4922 9.3303C17.9323 8.19379 18.3724 7.05929 18.8104 5.92278C18.9114 5.66237 19.0123 5.39995 19.1132 5.13954C19.1899 4.94171 19.0284 4.68735 18.8306 4.64294C18.5985 4.59046 18.4148 4.7136 18.334 4.92556Z" fill="#E5E5E5"/>
<circle cx="14.8328" cy="5.1678" r="5.1678" fill="white"/>
<path d="M13.4104 6V5.802C13.4104 5.622 13.4424 5.458 13.5064 5.31C13.5704 5.162 13.6564 5.028 13.7644 4.908C13.8724 4.784 13.9924 4.668 14.1244 4.56C14.2604 4.448 14.3964 4.342 14.5324 4.242C14.7004 4.118 14.8584 3.994 15.0064 3.87C15.1544 3.742 15.2744 3.606 15.3664 3.462C15.4584 3.314 15.5044 3.15 15.5044 2.97C15.5044 2.886 15.4844 2.802 15.4444 2.718C15.4044 2.634 15.3384 2.564 15.2464 2.508C15.1584 2.452 15.0384 2.424 14.8864 2.424C14.7344 2.424 14.6084 2.45 14.5084 2.502C14.4084 2.55 14.3324 2.62 14.2804 2.712C14.2324 2.804 14.2084 2.918 14.2084 3.054V3.3H13.4764C13.4724 3.28 13.4684 3.25 13.4644 3.21C13.4604 3.17 13.4584 3.12 13.4584 3.06C13.4584 2.764 13.5244 2.526 13.6564 2.346C13.7924 2.162 13.9704 2.028 14.1904 1.944C14.4144 1.856 14.6564 1.812 14.9164 1.812C15.1884 1.812 15.4104 1.852 15.5824 1.932C15.7584 2.012 15.8944 2.114 15.9904 2.238C16.0904 2.362 16.1584 2.494 16.1944 2.634C16.2344 2.774 16.2544 2.902 16.2544 3.018C16.2544 3.21 16.2204 3.386 16.1524 3.546C16.0884 3.702 15.9984 3.85 15.8824 3.99C15.7664 4.126 15.6284 4.258 15.4684 4.386C15.3124 4.51 15.1444 4.636 14.9644 4.764C14.8724 4.828 14.7824 4.892 14.6944 4.956C14.6064 5.02 14.5284 5.084 14.4604 5.148C14.3964 5.212 14.3464 5.276 14.3104 5.34H16.2784V6H13.4104Z" fill="url(#paint0_linear_8231_6928)"/>
<defs>
<linearGradient id="paint0_linear_8231_6928" x1="12.249" y1="4.52182" x2="17.2906" y2="3.87687" gradientUnits="userSpaceOnUse">
<stop stop-color="#FE3B76"/>
<stop offset="0.5" stop-color="#AF29CE"/>
<stop offset="1" stop-color="#2931DD"/>
<stop offset="1" stop-color="#2931DD"/>
</linearGradient>
</defs>
</svg>
